<?xml version="1.0" encoding="UTF-8"?>
<svg width="66px" height="66px" viewBox="0 0 66 66" version="1.1" xmlns="http://www.w3.org/2000/svg" xmlns:xlink="http://www.w3.org/1999/xlink">
    <title>bosLogo</title>
    <g id="Page-1" stroke="none" stroke-width="1" fill="none" fill-rule="evenodd">
        <g id="Desktop-HD" transform="translate(-54.000000, -17.000000)" fill="#1B1D2F" fill-rule="nonzero">
            <g id="bosLogo" transform="translate(54.000000, 17.000000)">
                <path d="M10.1448084,9.1957352 C12.1200173,6.52209707 14.0118216,2.90696963 12.7118443,0 C16.1059285,0.821113184 18.987637,1.50492926 21.5205134,2.05144823 C25.0956832,0.724832117 28.9631948,0 33,0 C37.1826322,0 41.1835186,0.778146198 44.8657885,2.19756785 C47.3683095,1.62853072 50.2128652,0.896008106 53.6119559,0 C52.0788358,2.96344563 54.4272444,7.07142667 56.5307629,9.86336927 C62.3871617,15.8189039 66,23.9875402 66,33 C66,51.2253967 51.2253967,66 33,66 C14.7746033,66 0,51.2253967 0,33 C0,23.6459154 3.89192469,15.2008386 10.1448084,9.1957352 Z M33.0855996,47.6181757 L36.9357798,39.6015808 C36.9357798,39.6015808 33.3268939,31.2738438 29.2354194,39.6015808 L33.0855996,47.6181757 Z M17.2307503,43.5440695 C25.7437981,43.5440695 32.6449869,36.6428807 32.6449869,28.1298329 C32.6449869,19.6167851 25.7437981,12.7155963 17.2307503,12.7155963 C8.71770254,12.7155963 1.81651376,19.6167851 1.81651376,28.1298329 C1.81651376,36.6428807 8.71770254,43.5440695 17.2307503,43.5440695 Z M49.3213761,44.1473394 C57.8338068,44.1473394 64.7344953,37.2466508 64.7344953,28.7342201 C64.7344953,20.2217894 57.8338068,13.3211009 49.3213761,13.3211009 C40.8089454,13.3211009 33.9082569,20.2217894 33.9082569,28.7342201 C33.9082569,37.2466508 40.8089454,44.1473394 49.3213761,44.1473394 Z M19.6879813,41.7979809 C13.4963628,41.7979809 8.47706422,36.7786824 8.47706422,30.5870639 C8.47706422,24.3954453 13.4963628,19.3761468 19.6879813,19.3761468 C25.8795998,19.3761468 30.8988983,24.3954453 30.8988983,30.5870639 C30.8988983,36.7786824 25.8795998,41.7979809 19.6879813,41.7979809 Z M51.7797244,42.4034855 C45.5881059,42.4034855 40.5688073,37.384187 40.5688073,31.1925684 C40.5688073,25.0009499 45.5881059,19.9816514 51.7797244,19.9816514 C57.9713429,19.9816514 62.9906415,25.0009499 62.9906415,31.1925684 C62.9906415,37.384187 57.9713429,42.4034855 51.7797244,42.4034855 Z M23.0789493,49.8228569 L26.111794,49.8228569 C24.5205705,52.8172663 23.0789493,49.8228569 23.0789493,49.8228569 Z M31.5560135,49.8228569 L34.5888582,49.8228569 C32.9976347,52.8172663 31.5560135,49.8228569 31.5560135,49.8228569 Z M40.0330777,49.8228569 L43.0659224,49.8228569 C41.474699,52.8172663 40.0330777,49.8228569 40.0330777,49.8228569 Z M36.4000502,55.8779028 L39.4328949,55.8779028 C37.8416714,58.8723122 36.4000502,55.8779028 36.4000502,55.8779028 Z M27.3174814,55.8779028 L30.3503261,55.8779028 C28.7591026,58.8723122 27.3174814,55.8779028 27.3174814,55.8779028 Z M32.1615181,61.3274441 L35.1943628,61.3274441 C33.6031393,64.3218535 32.1615181,61.3274441 32.1615181,61.3274441 Z" id="Combined-Shape"></path>
            </g>
        </g>
    </g>
</svg>