<?xml version="1.0" encoding="UTF-8"?>
<svg width="1442px" height="439px" viewBox="0 0 1442 439" version="1.1" xmlns="http://www.w3.org/2000/svg" xmlns:xlink="http://www.w3.org/1999/xlink">
    <title>Landscape</title>
    <g id="Page-1" stroke="none" stroke-width="1" fill="none" fill-rule="evenodd">
        <g id="Desktop-HD" transform="translate(0.000000, -616.000000)">
            <g id="Landscape" transform="translate(0.000000, 616.884400)">
                <path d="M0,196.248412 C117.869792,157.404662 296.46224,188.829141 535.777344,290.52185 C775.092448,392.214558 1076.62891,372.754923 1440.38672,232.142943 L1440,437.1156 L0,437.1156 L0,196.248412 Z" id="Path-2" fill="#1C2031"></path>
                <path d="M697.890625,435.52185 C853.270833,423.058308 973.434896,381.017943 1058.38281,309.400756 C1188.11979,208.476277 1315.71354,159.37862 1441.16406,162.107787 L1440,437.1156 L697.890625,435.52185 Z" id="Path-3" fill="#181B2A"></path>
                <g id="buildings" transform="translate(76.000000, 0.689818)">
                    <line x1="19.5" y1="62.9257812" x2="19.5" y2="30.9257813" id="Line" stroke="#141724" stroke-width="3" stroke-linecap="square"></line>
                    <circle id="Oval" fill="#A0A6C4" cx="19.5" cy="24.9257812" r="4.5"></circle>
                    <rect id="Rectangle" fill="#141724" x="353" y="172.425781" width="39" height="97"></rect>
                    <rect id="Rectangle" stroke="#979797" fill="#A0A6C4" x="360" y="181.425781" width="9" height="35"></rect>
                    <rect id="Rectangle" fill="#A0A6C4" x="376" y="181.425781" width="9" height="35"></rect>
                    <rect id="Rectangle" stroke="#979797" fill="#A0A6C4" x="360" y="224.425781" width="9" height="35"></rect>
                    <rect id="Rectangle" fill="#A0A6C4" x="376" y="224.425781" width="9" height="35"></rect>
                    <polygon id="Path-8" fill="#181B2A" points="1247.17969 186.976563 1266.67969 24.4375 1285.53516 0 1308.93359 186.976562"></polygon>
                    <circle id="Oval" fill="#A0A6C4" cx="1278" cy="28.4257812" r="5"></circle>
                    <circle id="Oval" fill="#A0A6C4" cx="1278" cy="51.4257812" r="5"></circle>
                    <circle id="Oval" fill="#A0A6C4" cx="1271" cy="74.4257812" r="5"></circle>
                    <circle id="Oval" fill="#A0A6C4" cx="1285" cy="74.4257812" r="5"></circle>
                    <circle id="Oval" fill="#A0A6C4" cx="1269" cy="100.425781" r="5"></circle>
                    <circle id="Oval" fill="#A0A6C4" cx="1288" cy="100.425781" r="5"></circle>
                    <circle id="Oval" fill="#A0A6C4" cx="1266" cy="126.425781" r="5"></circle>
                    <circle id="Oval" fill="#A0A6C4" cx="1290" cy="126.425781" r="5"></circle>
                    <circle id="Oval" fill="#A0A6C4" cx="1262" cy="154.425781" r="5"></circle>
                    <circle id="Oval" fill="#A0A6C4" cx="1294" cy="154.425781" r="5"></circle>
                    <circle id="Oval" fill="#A0A6C4" cx="1278" cy="154.425781" r="5"></circle>
                    <g id="Apartment" transform="translate(0.000000, 64.425781)">
                        <rect id="Rectangle" fill="#141724" x="0" y="30" width="38" height="111"></rect>
                        <rect id="Rectangle" fill="#141724" x="3" y="13" width="32" height="17"></rect>
                        <rect id="Rectangle" fill="#141724" x="6" y="0" width="26" height="17"></rect>
                        <rect id="Rectangle" fill="#A0A6C4" x="5" y="37" width="9" height="9"></rect>
                        <rect id="Rectangle" fill="#A0A6C4" x="24" y="37" width="9" height="9"></rect>
                        <rect id="Rectangle" fill="#A0A6C4" x="5" y="55" width="9" height="9"></rect>
                        <rect id="Rectangle" fill="#A0A6C4" x="24" y="55" width="9" height="9"></rect>
                        <rect id="Rectangle" fill="#A0A6C4" x="5" y="74" width="9" height="9"></rect>
                        <rect id="Rectangle" fill="#A0A6C4" x="24" y="74" width="9" height="9"></rect>
                        <rect id="Rectangle" fill="#A0A6C4" x="5" y="93" width="9" height="9"></rect>
                        <rect id="Rectangle" fill="#A0A6C4" x="24" y="93" width="9" height="9"></rect>
                        <rect id="Rectangle" fill="#A0A6C4" x="5" y="112" width="9" height="9"></rect>
                        <rect id="Rectangle" fill="#A0A6C4" x="24" y="112" width="9" height="9"></rect>
                    </g>
                </g>
                <g id="Tree-Tri" transform="translate(172.641602, 135.364623)" fill="#141724">
                    <polygon id="Path-4" points="18.1308594 0 0.9375 47.8212891 35.0263672 48.1083984"></polygon>
                    <polygon id="Path-5" points="15.7978516 47.7421875 14.6005859 74.2382812 20.4814453 73.9589844 19.5498047 47.7421875"></polygon>
                </g>
                <g id="Tree-Tri" transform="translate(1249.000000, 136.115600)" fill="#141724">
                    <polygon id="Path-4" points="18.1308594 0 0.9375 47.8212891 35.0263672 48.1083984"></polygon>
                    <polygon id="Path-5" points="15.7978516 47.7421875 14.6005859 74.2382812 20.4814453 73.9589844 19.5498047 47.7421875"></polygon>
                </g>
                <g id="Tree-Tri" transform="translate(122.641602, 171.364623)" fill="#141724">
                    <polygon id="Path-4" points="13.9763547 0.750976562 0.358398438 37.5301618 27.3583984 37.7509766"></polygon>
                    <polygon id="Path-5" points="12.3763327 37.7509766 11.3583984 57.7509766 16.3583984 57.5401554 15.5663028 37.7509766"></polygon>
                </g>
                <g id="Tree-Tri" transform="translate(935.641602, 301.364623)" fill="#141724">
                    <polygon id="Path-4" points="13.9763547 0.750976562 0.358398438 37.5301618 27.3583984 37.7509766"></polygon>
                    <polygon id="Path-5" points="12.3763327 37.7509766 11.3583984 57.7509766 16.3583984 57.5401554 15.5663028 37.7509766"></polygon>
                </g>
                <g id="Tree-Tri" transform="translate(242.641602, 191.364623)" fill="#141724">
                    <polygon id="Path-4" points="13.9763547 0.750976562 0.358398438 37.5301618 27.3583984 37.7509766"></polygon>
                    <polygon id="Path-5" points="12.3763327 37.7509766 11.3583984 57.7509766 16.3583984 57.5401554 15.5663028 37.7509766"></polygon>
                </g>
                <g id="Tree-Tri" transform="translate(572.641602, 291.364623)" fill="#141724">
                    <polygon id="Path-4" points="13.9763547 0.750976562 0.358398438 37.5301618 27.3583984 37.7509766"></polygon>
                    <polygon id="Path-5" points="12.3763327 37.7509766 11.3583984 57.7509766 16.3583984 57.5401554 15.5663028 37.7509766"></polygon>
                </g>
                <g id="Tree-Tri" transform="translate(1391.000000, 115.115600)" fill="#141724">
                    <polygon id="Path-4" points="13.9763547 0.750976562 0.358398438 37.5301618 27.3583984 37.7509766"></polygon>
                    <polygon id="Path-5" points="12.3763327 37.7509766 11.3583984 57.7509766 16.3583984 57.5401554 15.5663028 37.7509766"></polygon>
                </g>
                <g id="Tree-Cricle" transform="translate(725.000000, 307.115600)" fill="#141724">
                    <circle id="Oval" cx="14.5" cy="28.5" r="14.5"></circle>
                    <circle id="Oval" cx="22.5" cy="14.5" r="14.5"></circle>
                    <circle id="Oval" cx="31.5" cy="28.5" r="14.5"></circle>
                    <path d="M20.7910156,39.2392578 C21.2441406,46.2477214 20.3138021,50.9176432 18,53.2490234 C17.8919271,53.4951172 21.2675781,53.4951172 28.1269531,53.2490234 C25.6028646,49.2360026 24.7483724,44.5660807 25.5634766,39.2392578 C25.3811849,39.4371745 23.7903646,39.4371745 20.7910156,39.2392578 Z" id="Path-6"></path>
                </g>
                <g id="Tree-Cricle" transform="translate(272.000000, 165.115600)" fill="#141724">
                    <circle id="Oval" cx="14.5" cy="28.5" r="14.5"></circle>
                    <circle id="Oval" cx="22.5" cy="14.5" r="14.5"></circle>
                    <circle id="Oval" cx="31.5" cy="28.5" r="14.5"></circle>
                    <path d="M20.7910156,39.2392578 C21.2441406,46.2477214 20.3138021,50.9176432 18,53.2490234 C17.8919271,53.4951172 21.2675781,53.4951172 28.1269531,53.2490234 C25.6028646,49.2360026 24.7483724,44.5660807 25.5634766,39.2392578 C25.3811849,39.4371745 23.7903646,39.4371745 20.7910156,39.2392578 Z" id="Path-6"></path>
                </g>
                <g id="Tree-Cricle" transform="translate(15.000000, 199.115600)" fill="#141724">
                    <circle id="Oval" cx="11.5" cy="22.5" r="11.5"></circle>
                    <circle id="Oval" cx="17.5" cy="11.5" r="11.5"></circle>
                    <circle id="Oval" cx="24.5" cy="22.5" r="11.5"></circle>
                    <path d="M16.2062602,31 C16.564127,36.4312579 15.8293689,40.0502465 14.0019859,41.8569659 C13.9166326,42.047678 16.5826373,42.047678 22,41.8569659 C20.006538,38.7470474 19.3316815,35.1280587 19.9754304,31 C19.831461,31.1533769 18.5750709,31.1533769 16.2062602,31 Z" id="Path-6"></path>
                </g>
                <g id="Heart-Tree" transform="translate(1164.000000, 172.115600)" fill="#141724">
                    <path d="M22.7910156,39.2392578 C23.0911458,52.5888672 22.0843099,60.429362 19.7705078,62.7607422 C19.6624349,63.0068359 22.8964844,63.1402995 29.4726562,63.1611328 C27.3847656,52.5400391 26.7483724,44.5660807 27.5634766,39.2392578 C27.3811849,39.4371745 25.7903646,39.4371745 22.7910156,39.2392578 Z" id="Path-6-Copy"></path>
                    <path d="M25.7279192,39.7231084 C17.754782,45.5281305 10.4753171,45.7307989 3.88952434,40.3311136 C-5.98916476,32.2315857 6.65657242,10.7584381 26.4565206,0.234375 C26.2038296,0.359691171 25.9609625,13.5226023 25.7279192,39.7231084 Z" id="Path-7"></path>
                    <path d="M51.3775393,40.1646972 C42.9713221,45.5765234 35.4753171,45.590896 28.8895243,40.2078149 C19.0108352,32.1331933 31.6565724,10.7260763 51.4565206,0.234375 C51.2038296,0.35930582 51.1775025,13.6694132 51.3775393,40.1646972 Z" id="Path-7" transform="translate(38.456521, 22.234375) scale(-1, 1) translate(-38.456521, -22.234375) "></path>
                </g>
                <g id="Heart-Tree" transform="translate(344.000000, 192.115600)" fill="#141724">
                    <path d="M17.1805672,30 C17.3970496,40.0449053 16.670824,45.9444807 15.0018905,47.6987263 C14.9239381,47.8838994 17.2566413,47.984324 22,48 C20.4940153,40.0081646 20.0349882,34.0081646 20.6229186,30 C20.4914325,30.1489223 19.3439821,30.1489223 17.1805672,30 Z" id="Path-6-Copy"></path>
                    <path d="M19.4395374,30.5140213 C13.3063549,34.9997201 7.70676653,35.1563275 2.64077212,30.9838435 C-4.95821949,24.7251174 4.76927064,8.13223058 20,0 C19.8056223,0.0968352227 19.6188014,10.2681756 19.4395374,30.5140213 Z" id="Path-7"></path>
                    <path d="M38.9392452,30.855249 C32.4729242,35.0371147 26.7067665,35.0482208 21.6407721,30.8885672 C14.0417805,24.6490869 23.7692706,8.10722372 39,0 C38.8056223,0.0965374515 38.7853707,10.3816204 38.9392452,30.855249 Z" id="Path-7" transform="translate(29.000000, 17.000000) scale(-1, 1) translate(-29.000000, -17.000000) "></path>
                </g>
            </g>
        </g>
    </g>
</svg>